<!DOCTYPE svg PUBLIC "-//W3C//DTD SVG 1.1//EN" "http://www.w3.org/Graphics/SVG/1.1/DTD/svg11.dtd">
<!-- Uploaded to: SVG Repo, www.svgrepo.com, Transformed by: SVG Repo Mixer Tools -->
<svg fill="#FFB900" height="800px" width="800px" version="1.1" id="Layer_1" xmlns="http://www.w3.org/2000/svg" xmlns:xlink="http://www.w3.org/1999/xlink" viewBox="0 0 459 459" xml:space="preserve" transform="rotate(0)">
<g id="SVGRepo_bgCarrier" stroke-width="0"/>
<g id="SVGRepo_tracerCarrier" stroke-linecap="round" stroke-linejoin="round"/>
<g id="SVGRepo_iconCarrier"> <g> <g> <path d="M229.5,0C102.751,0,0,102.751,0,229.5S102.751,459,229.5,459C356.25,459,459,356.249,459,229.5S356.25,0,229.5,0z M351.738,246.077c-0.063,0.071-0.122,0.144-0.185,0.214c-0.659,0.723,4.184-4.144-85.051,85.091 c-9.757,9.757-25.586,9.77-35.356,0c-9.763-9.763-9.763-25.592,0-35.355l41.527-41.527h-146.7c-13.808,0-25-11.193-25-25 s11.192-25,25-25h146.701l-41.527-41.527c-9.763-9.763-9.763-25.592,0-35.355c9.764-9.763,25.592-9.763,35.356,0 c89.798,89.798,84.708,84.629,85.852,86.022C360.134,223.129,359.904,236.87,351.738,246.077z"/> </g> </g> </g>
</svg>